<?xml version="1.0" standalone="no"?>
<!DOCTYPE svg PUBLIC "-//W3C//DTD SVG 20010904//EN"
 "http://www.w3.org/TR/2001/REC-SVG-20010904/DTD/svg10.dtd">
<svg version="1.0" xmlns="http://www.w3.org/2000/svg"
 width="1028pt" height="650" viewBox="0 0 1028.000000 650.000000"
 preserveAspectRatio="xMidYMid meet">

<g transform="translate(0.000000,650.000000) scale(0.100000,-0.100000)"
fill="#777878" stroke="none">
<path d="M754 6228 c-9 -29 -22 -84 -29 -123 -12 -70 -19 -100 -50 -230 -10
-38 -21 -98 -26 -132 -4 -35 -13 -71 -18 -82 -6 -10 -14 -45 -17 -77 -4 -33
-13 -74 -20 -92 -7 -17 -16 -60 -20 -95 -4 -34 -11 -70 -16 -80 -5 -10 -15
-53 -23 -95 -7 -42 -18 -95 -24 -117 -5 -22 -15 -64 -20 -92 -6 -29 -16 -77
-22 -105 -5 -29 -14 -71 -20 -93 -5 -22 -14 -67 -20 -100 -5 -33 -16 -82 -24
-110 -8 -27 -17 -70 -21 -95 -3 -25 -12 -67 -19 -95 -8 -27 -18 -75 -24 -105
-5 -30 -14 -73 -20 -95 -5 -22 -14 -62 -20 -90 -5 -27 -15 -75 -21 -105 -6
-30 -16 -73 -21 -95 -6 -22 -17 -74 -24 -115 -7 -41 -17 -86 -22 -100 -6 -14
-14 -52 -18 -84 -4 -33 -12 -67 -18 -77 -6 -10 -9 -20 -6 -23 3 -3 124 -6 269
-6 213 -2 266 1 271 12 16 32 38 117 44 167 3 30 13 70 21 89 8 19 14 49 14
67 0 18 9 62 20 97 11 34 20 77 20 95 0 18 7 52 15 76 8 24 19 73 24 109 5 36
14 74 19 84 5 11 12 44 16 74 4 30 13 78 21 105 8 28 18 75 24 105 5 30 14 73
20 95 5 22 15 65 21 95 6 30 16 78 21 105 6 28 15 68 20 90 6 22 17 74 24 115
7 41 17 89 23 105 6 17 13 53 16 82 4 28 13 68 21 87 8 19 15 51 15 70 0 19 9
63 20 98 11 34 20 80 20 101 0 24 7 44 20 57 20 20 33 20 736 20 l716 0 26
-29 c15 -16 52 -63 82 -105 60 -82 160 -219 185 -251 54 -71 102 -136 115
-155 8 -12 34 -47 58 -78 23 -32 49 -66 57 -77 9 -11 33 -43 55 -72 22 -29 40
-56 40 -59 0 -4 7 -14 15 -23 15 -16 87 -111 115 -151 8 -12 34 -47 58 -78 23
-32 49 -66 58 -77 30 -40 130 -176 169 -230 22 -30 46 -63 53 -73 7 -9 66 -89
132 -177 65 -88 135 -182 155 -210 20 -27 89 -122 155 -210 65 -88 142 -193
172 -233 29 -40 77 -105 106 -143 61 -80 63 -69 -32 -197 -33 -45 -87 -117
-118 -160 -32 -42 -82 -111 -113 -152 -31 -41 -82 -111 -115 -155 -32 -44 -66
-89 -74 -100 -9 -11 -34 -45 -56 -75 -21 -30 -46 -64 -54 -75 -51 -66 -103
-136 -116 -155 -8 -12 -34 -47 -58 -78 -23 -32 -49 -66 -57 -77 -9 -11 -33
-43 -55 -72 -22 -29 -40 -57 -40 -62 0 -6 -6 -14 -13 -18 -6 -4 -26 -28 -42
-53 -17 -24 -37 -52 -45 -61 -8 -8 -22 -26 -30 -38 -8 -13 -42 -59 -75 -102
-33 -43 -85 -113 -115 -154 -30 -42 -73 -100 -95 -129 -22 -30 -47 -64 -55
-76 -8 -12 -67 -91 -130 -176 -63 -84 -140 -188 -170 -230 -30 -42 -74 -100
-98 -130 l-43 -54 -882 -2 -882 -3 -3 -278 c-2 -218 0 -277 10 -277 7 0 465 0
1018 0 l1005 0 17 22 c10 13 26 34 35 47 10 13 26 32 36 42 9 11 17 22 17 25
0 3 10 19 23 34 12 15 29 38 37 50 8 13 22 31 30 39 8 9 29 37 45 61 17 24 37
52 45 61 22 25 31 38 65 89 16 25 35 52 42 60 17 19 93 121 113 150 21 31 97
132 112 149 7 8 15 20 18 26 3 6 30 44 60 83 67 88 146 195 220 296 30 42 82
112 115 156 33 43 85 113 115 154 30 42 80 109 110 150 30 41 73 100 95 130
22 31 67 92 100 136 33 44 85 114 115 155 30 41 80 109 110 149 30 41 107 145
170 231 63 86 140 189 170 230 234 314 260 354 232 367 -4 2 -28 32 -54 68
-27 36 -55 74 -63 85 -15 19 -62 82 -190 255 -64 87 -147 198 -225 305 -30 42
-80 109 -110 149 -63 85 -251 340 -319 434 -49 67 -127 172 -216 292 -101 136
-169 229 -225 305 -30 41 -82 111 -115 155 -33 44 -85 114 -115 155 -30 42
-73 100 -95 129 -22 30 -47 64 -55 77 -8 12 -22 30 -30 39 -9 9 -31 39 -50 68
-18 29 -37 52 -42 52 -4 0 -8 5 -8 11 0 6 -18 33 -40 59 -22 26 -40 51 -40 56
0 4 -7 14 -15 23 -38 42 -52 60 -80 101 -39 59 -40 60 -67 91 -13 15 -34 45
-48 67 -14 23 -35 45 -48 51 -16 8 -353 11 -1082 11 l-1059 0 -17 -52z"/>
<path d="M1720 5089 c0 -6 23 -40 51 -77 59 -78 147 -198 204 -277 22 -31 65
-89 95 -130 30 -41 80 -108 110 -150 30 -41 80 -108 110 -149 61 -82 197 -268
349 -476 163 -222 204 -279 241 -327 48 -64 122 -167 166 -230 41 -61 40 -72
-15 -145 -20 -26 -54 -72 -76 -103 -22 -31 -47 -64 -55 -75 -8 -11 -33 -44
-55 -75 -48 -66 -175 -238 -310 -419 -22 -30 -47 -64 -55 -76 -8 -13 -33 -46
-55 -75 -22 -29 -47 -63 -55 -75 -8 -12 -33 -46 -55 -76 -22 -29 -65 -87 -95
-129 -30 -41 -82 -111 -115 -155 -33 -43 -78 -105 -100 -136 -22 -31 -47 -65
-55 -75 -8 -11 -33 -44 -55 -75 -22 -30 -63 -85 -90 -122 -73 -96 -88 -123
-78 -133 5 -5 147 -8 328 -7 l319 3 40 52 c23 28 66 86 96 127 81 112 162 221
227 308 32 43 76 102 98 133 22 31 65 89 95 130 30 41 80 108 110 150 30 41
80 108 110 149 30 41 73 100 95 131 22 30 66 89 98 130 31 41 57 77 57 80 0 3
26 39 58 80 31 40 71 93 87 115 17 23 54 74 82 113 95 129 123 174 123 194 0
11 -19 45 -42 76 -24 31 -68 90 -98 132 -30 41 -82 111 -115 155 -33 44 -80
108 -105 143 -26 34 -68 93 -95 130 -28 37 -75 101 -105 142 -30 41 -80 109
-110 150 -30 41 -80 109 -110 150 -30 41 -73 99 -95 130 -22 30 -67 91 -100
135 -33 44 -84 113 -113 153 -29 39 -76 104 -105 143 -29 39 -72 99 -97 133
-25 34 -53 73 -63 87 l-18 24 -330 0 c-226 0 -329 -3 -329 -11z"/>
<path d="M5249 591 l-29 -29 0 -197 0 -197 29 -29 29 -29 2397 0 2397 0 29 29
29 29 0 197 0 197 -29 29 -29 29 -2397 0 -2397 0 -29 -29z"/>
</g>
</svg>
